<svg width="61" height="52" viewBox="0 0 61 52" fill="none" xmlns="http://www.w3.org/2000/svg">
<path d="M35.4884 22.2935C33.1693 23.6619 30.7631 25.4629 28.4691 27.8085C23.7956 32.6253 21.6152 37.7476 20.5893 40.7516C21.8942 40.4092 23.6937 39.8645 25.784 38.9906C28.9769 37.634 32.8401 35.4906 36.5645 32.0806C42.2404 26.9081 44.9905 21.2543 46.2438 18.1218C44.1284 18.5662 39.9981 19.6305 35.4884 22.2935Z" fill="#F9B53F"/>
<path d="M1.39599 40.2453C1.20556 39.5855 1.58641 38.8887 2.24479 38.685L7.35089 37.1896C8.00926 36.9992 8.70602 37.3801 8.90826 38.0384C9.09868 38.6983 8.71931 39.3951 8.05945 39.5988L2.95483 41.0941C2.84116 41.1325 2.71421 41.1458 2.59907 41.1458C2.05436 41.1458 1.56132 40.79 1.39599 40.2453ZM11.4812 9.67959L9.08687 3.41616C8.84626 2.7696 9.16216 2.04627 9.80873 1.80565C10.4538 1.55323 11.1771 1.88242 11.4178 2.52898L13.8121 8.79241C14.0527 9.43749 13.7354 10.1608 13.0903 10.4014C12.9382 10.4516 12.7862 10.49 12.6459 10.49C12.1514 10.49 11.6702 10.1859 11.4812 9.67959ZM39.415 8.37317C38.8333 8.0056 38.668 7.2188 39.0356 6.64899L41.734 2.45222C42.1016 1.86913 42.8869 1.70527 43.4567 2.07284C44.0398 2.44041 44.2037 3.22574 43.8376 3.79702L41.1391 7.99232C40.8985 8.35988 40.4926 8.5636 40.0866 8.5636C39.8593 8.57541 39.6305 8.51193 39.415 8.37317ZM31.8525 35.7445C32.0931 35.7445 32.3337 35.681 32.5492 35.5289C33.1191 35.1481 33.2711 34.3628 32.8917 33.7915C31.9411 32.3714 29.9143 29.8619 27.114 29.05C23.7955 28.0993 20.6911 28.9998 17.6886 29.8619C16.8781 30.0907 16.1179 30.318 15.3444 30.4952C13.6601 30.9011 11.8857 31.2185 10.4287 30.7491C8.84626 30.2427 7.48965 28.8979 6.37513 27.6432C5.919 27.1236 5.12038 27.0852 4.61405 27.5413C4.09444 27.999 4.05606 28.7976 4.5122 29.3039C5.85552 30.8126 7.51474 32.4482 9.66849 33.1331C11.7086 33.7797 13.8874 33.4121 15.9275 32.9176C16.7512 32.7139 17.5749 32.4865 18.372 32.2459C21.1591 31.4458 23.7822 30.6856 26.4172 31.434C27.9126 31.8651 29.5083 33.2217 30.8133 35.1614C31.0539 35.5408 31.4465 35.7445 31.8525 35.7445Z" fill="#3BA27A"/>
<path d="M13.7237 46.6726C13.052 46.5205 12.621 45.8489 12.773 45.1772L13.4698 42.0964C13.6218 41.4233 14.2935 41.0056 14.9651 41.1458C15.6368 41.2978 16.0664 41.9695 15.9143 42.6412L15.2176 45.7219C15.0921 46.305 14.5725 46.6977 14.0012 46.6977C13.9126 46.711 13.8122 46.6977 13.7237 46.6726ZM0.294888 24.5122C-0.149442 23.9793 -0.0859661 23.194 0.446934 22.7497C1.29574 22.0278 2.72615 21.114 4.71604 20.81C6.98345 20.4557 8.8331 21.1022 9.73209 21.52C10.3536 21.8123 10.6326 22.5592 10.3403 23.1807C10.0495 23.8022 9.30105 24.0812 8.68105 23.7889C8.03449 23.4848 6.71774 23.0287 5.09542 23.2826C3.6901 23.4981 2.66268 24.1565 2.05449 24.6775C1.82716 24.8798 1.53635 24.9683 1.25736 24.9683C0.889787 24.9683 0.535505 24.8163 0.294888 24.5122ZM36.5646 33.3353C36.9454 33.3353 37.313 33.1715 37.5536 32.8541C37.9714 32.3094 37.8695 31.5226 37.3248 31.1048C34.8419 29.1769 33.2712 27.0468 32.6881 24.7661C31.9914 22.0529 32.7398 19.6438 33.5369 17.0959C34.399 14.3192 35.3866 11.1749 34.399 7.46088C33.8026 5.19052 32.5878 3.08696 30.8001 1.21074C30.3189 0.716221 29.5335 0.691127 29.0405 1.17236C28.546 1.65507 28.5209 2.4404 29.0021 2.93492C30.4975 4.50705 31.5101 6.24303 31.9914 8.09416C32.79 11.1115 31.9914 13.6594 31.1559 16.3475C30.2938 19.1242 29.3948 21.9894 30.2687 25.3861C31.0038 28.2263 32.8653 30.8125 35.8043 33.0814C36.0332 33.26 36.2989 33.3353 36.5646 33.3353Z" fill="#446DB7"/>
<path d="M45.0274 14.4964C44.8754 13.8247 45.2946 13.153 45.9648 13.001L49.8678 12.1138C50.5395 11.9618 51.2096 12.3795 51.3632 13.0512C51.5137 13.7228 51.096 14.396 50.4243 14.548L46.5228 15.4352C46.4342 15.4603 46.3324 15.4603 46.2438 15.4603C45.674 15.4603 45.1544 15.0676 45.0274 14.4964ZM36.5645 32.0939C38.1986 30.6103 39.5803 29.0884 40.7583 27.6048C41.7473 26.3501 42.5961 25.1204 43.3047 23.9675C44.7115 21.6721 45.6489 19.6187 46.2438 18.1484L52.6932 34.5399L54.314 38.6599L64.0184 63.3815L59.8512 61.2144L56.2906 59.3633L38.3389 50.0073L34.4107 47.9657L20.5893 40.7649C23.9092 39.8896 30.3955 37.7093 36.5645 32.0939ZM22.8449 10.49C23.2375 10.49 23.6302 10.3011 23.8708 9.9453C24.2635 9.37549 24.1247 8.60198 23.5535 8.20931C23.022 7.84174 21.7422 6.78923 21.3628 4.9381C21.0705 3.51802 21.4632 2.33855 21.7304 1.75546C22.0079 1.12218 21.7304 0.387045 21.0971 0.108047C20.4623 -0.17095 19.7287 0.108047 19.4497 0.741328C19.0688 1.59161 18.4872 3.34088 18.9168 5.44443C19.4748 8.18274 21.3495 9.72977 22.1348 10.2745C22.3504 10.4147 22.6043 10.49 22.8449 10.49Z" fill="#F14947"/>
<path d="M36.5645 46.3685C37.8059 46.3685 38.8201 47.3694 38.8201 48.6256C38.8201 49.1452 38.6429 49.6265 38.3506 50.0073L34.424 47.9658C34.703 47.0402 35.5636 46.3685 36.5645 46.3685ZM52.6932 34.5399L54.314 38.6599C53.9716 38.8755 53.5789 38.9906 53.1479 38.9906C51.9064 38.9906 50.8937 37.9883 50.8937 36.7335C50.8937 35.6559 51.6658 34.7422 52.6932 34.5399ZM29.901 39.2563C31.1425 39.2563 32.1566 40.2705 32.1566 41.5134C32.1566 42.7549 31.1558 43.769 29.901 43.769C28.6595 43.769 27.6469 42.7681 27.6469 41.5134C27.6469 40.2705 28.6477 39.2563 29.901 39.2563ZM48.1953 44.1248C49.4367 44.1248 50.4494 45.1256 50.4494 46.3804C50.4494 47.6233 49.4485 48.6374 48.1953 48.6374C46.9405 48.6374 45.9397 47.6366 45.9397 46.3804C45.9397 45.1256 46.9538 44.1248 48.1953 44.1248ZM58.5462 57.1314C59.7877 57.1314 60.8004 58.1337 60.8004 59.3884C60.8004 60.1487 60.4328 60.8085 59.863 61.2263L56.2906 59.3633C56.3039 58.1204 57.3033 57.1314 58.5462 57.1314ZM43.3047 23.9543C44.0398 24.3218 44.5462 25.0821 44.5462 25.9692C44.5462 27.2122 43.5453 28.2263 42.292 28.2263C41.6957 28.2263 41.1391 27.9857 40.7465 27.6048C41.7473 26.3501 42.5961 25.1204 43.3047 23.9543ZM6.08434 13.965C7.76866 13.3051 11.2023 12.3795 15.1924 13.4704C20.3236 14.8772 23.0102 18.6681 23.921 20.2402C24.2768 20.8351 24.073 21.5968 23.4781 21.9511C23.2759 22.0647 23.0604 22.1282 22.8449 22.1282C22.4138 22.1282 21.9961 21.9009 21.7673 21.5068C21.0085 20.2018 18.778 17.0576 14.534 15.8914C11.2406 14.9791 8.39013 15.7644 6.99662 16.2973C6.35006 16.5512 5.62821 16.2206 5.3743 15.5873C5.1204 14.9525 5.43778 14.2174 6.08434 13.965Z" fill="#F9B53F"/>
<path d="M13.8624 45.747C13.7739 45.7219 13.7237 45.6452 13.7488 45.5566L14.5208 42.2603C14.5474 42.1717 14.6227 42.1215 14.7113 42.1466C14.7998 42.1717 14.85 42.2485 14.8249 42.3371L14.0529 45.6334C14.0396 45.7087 13.9761 45.7603 13.9008 45.7603C13.8875 45.747 13.8757 45.747 13.8624 45.747ZM39.9731 7.53617C39.8978 7.48598 39.8712 7.39741 39.9229 7.32065L42.6583 2.97331C42.7099 2.89655 42.7985 2.88474 42.8738 2.92164C42.9505 2.97331 42.9756 3.06188 42.9254 3.13716L40.1886 7.48598C40.1635 7.53617 40.1118 7.56127 40.0617 7.56127C40.0233 7.54946 39.9982 7.54946 39.9731 7.53617ZM23.0088 20.7849C22.2117 19.4785 19.8808 16.2973 15.5217 14.9023C11.3028 13.5339 7.63003 14.6617 6.24832 15.1946C6.17304 15.2197 6.08447 15.1813 6.04609 15.1045C6.00771 15.0293 6.0579 14.9274 6.13466 14.9023C7.88245 14.2174 11.4548 13.2549 15.6102 14.5982C20.058 16.0301 22.4523 19.2895 23.276 20.6195C23.3262 20.6963 23.3011 20.7849 23.2244 20.8351C23.1993 20.8483 23.1742 20.8602 23.1491 20.8602C23.0989 20.8602 23.0472 20.8351 23.0088 20.7849ZM35.5268 33.0061C35.4752 32.9427 35.4752 32.8408 35.5386 32.7906C37.8961 30.7491 40.0115 28.43 41.8094 25.8939C43.141 24.031 44.3057 22.0278 45.2814 19.9479C45.3198 19.8726 45.4084 19.8342 45.4837 19.8726C45.5604 19.9095 45.5988 19.9981 45.5604 20.0748C44.5714 22.1666 43.4067 24.183 42.0634 26.0711C40.2521 28.6322 38.1234 30.9779 35.7424 33.0194C35.7158 33.0445 35.6789 33.0563 35.6405 33.0563C35.6021 33.0563 35.5519 33.0445 35.5268 33.0061ZM31.612 42.9836C31.5353 42.932 31.5234 42.8316 31.5736 42.7681C32.2453 41.8293 32.0549 40.511 31.1426 39.8394C30.6997 39.5102 30.1166 39.3699 29.5468 39.4718C28.9637 39.5737 28.4574 39.9029 28.1282 40.3974C28.0766 40.4727 27.988 40.4859 27.9127 40.4357C27.8359 40.3841 27.8241 40.2955 27.8743 40.2202C28.2537 39.6489 28.825 39.2814 29.4966 39.1677C30.1417 39.0526 30.8134 39.2061 31.333 39.5855C32.3722 40.359 32.5996 41.8676 31.8275 42.9453C31.801 42.9836 31.7508 43.0087 31.7006 43.0087C31.6755 43.0087 31.6371 42.9954 31.612 42.9836ZM60.61 60.2756C60.5348 60.2505 60.4846 60.1619 60.5097 60.0733C60.8123 59.1345 60.458 58.1071 59.6476 57.6007C58.9124 57.1446 57.95 57.1948 57.2532 57.7277C57.1897 57.7779 57.0879 57.7661 57.0377 57.7026C56.9875 57.6391 56.9993 57.5373 57.0628 57.4871C57.8732 56.8774 58.9759 56.8139 59.8129 57.3468C60.7503 57.9299 61.1548 59.0961 60.8005 60.187C60.7754 60.2505 60.7119 60.3007 60.6484 60.3007C60.6484 60.2756 60.6366 60.2756 60.61 60.2756ZM48.1954 48.7776C48.284 48.7776 48.3474 48.7009 48.3474 48.6256C48.3474 48.5355 48.2707 48.4721 48.1954 48.4721C47.0425 48.4721 46.1051 47.5347 46.1051 46.3803C46.1051 45.2274 47.0425 44.2886 48.1954 44.2886C48.284 44.2886 48.3474 44.2133 48.3474 44.1365C48.3474 44.0612 48.2707 43.9845 48.1954 43.9845C46.8654 43.9845 45.7877 45.0621 45.7877 46.3936C45.7877 47.7 46.8654 48.7776 48.1954 48.7776Z" fill="#3A5471"/>
</svg>
