<svg width="119" height="76" viewBox="0 0 119 76" fill="none" xmlns="http://www.w3.org/2000/svg">
<path fill-rule="evenodd" clip-rule="evenodd" d="M31.7467 45.5435C29.9078 45.4733 28.3098 45.3744 26.9383 45.2596V45.2724L23.3021 50.312L23.2893 50.3248C23.7231 50.7713 23.9655 51.371 23.9655 52.0344C23.9655 53.4379 22.8172 54.5862 21.4138 54.5862C21.0565 54.5862 20.7248 54.5096 20.4186 54.382L20.3676 54.5862L15.0345 62.2413C15.0345 62.2413 20.4186 64.3975 34.1724 64.742C35.3845 64.7803 36.6603 64.7931 38 64.7931C39.3396 64.7931 40.6155 64.7803 41.8276 64.742C55.5814 64.3975 60.9655 62.2413 60.9655 62.2413L55.5303 54.3948C55.2369 54.5224 54.9179 54.5862 54.5862 54.5862C53.1827 54.5862 52.0345 53.4379 52.0345 52.0344C52.0345 51.371 52.2896 50.7586 52.7107 50.312L49.2723 45.3608C53.7696 44.8769 55.8621 44.3793 55.8621 44.3793L45.1066 27.4742C48.8961 27.1042 50.7589 26.5173 50.7589 26.5173L38.0002 8.65526L23.9658 26.4791L23.9402 26.5173L26.5175 26.9384H26.5558C26.5302 26.798 26.5175 26.6577 26.5175 26.5173C26.5175 25.1139 27.6658 23.9656 29.0692 23.9656C30.4727 23.9656 31.6209 25.1139 31.6209 26.5173C31.6209 27.0362 31.4578 27.5299 31.1936 27.9363L31.1869 27.9462L20.1379 44.3793C20.1379 44.3793 22.1921 44.8896 26.9383 45.2596C28.3098 45.3744 29.9078 45.4733 31.7467 45.5435ZM42.6393 45.6057C44.5228 45.5563 46.7269 45.4574 49.2021 45.2596L49.2723 45.3608L42.6393 45.6057Z" fill="#CCEEFF"/>
<path fill-rule="evenodd" clip-rule="evenodd" d="M36.7241 54.5862C38.1276 54.5862 39.2758 55.7345 39.2758 57.1379C39.2758 58.5414 38.1276 59.6896 36.7241 59.6896C35.3207 59.6896 34.1724 58.5414 34.1724 57.1379C34.1724 55.7345 35.3207 54.5862 36.7241 54.5862ZM29.0689 29.0689C27.8058 29.0689 26.7596 28.1503 26.5555 26.9383C26.53 26.7979 26.5172 26.6576 26.5172 26.5172C26.5172 25.1138 27.6655 23.9655 29.0689 23.9655C30.4724 23.9655 31.6207 25.1138 31.6207 26.5172C31.6207 27.0403 31.4548 27.5379 31.1869 27.9462C30.7276 28.6224 29.9493 29.0689 29.0689 29.0689ZM54.5862 49.4827C55.9896 49.4827 57.1379 50.631 57.1379 52.0345C57.1379 53.1062 56.4745 54.0248 55.5303 54.3948C55.2369 54.5224 54.9179 54.5862 54.5862 54.5862C53.1827 54.5862 52.0345 53.4379 52.0345 52.0345C52.0345 51.371 52.2896 50.7586 52.7107 50.3121C53.1827 49.8017 53.8462 49.4827 54.5862 49.4827ZM39.2758 34.1724C40.6793 34.1724 41.8276 35.3207 41.8276 36.7241C41.8276 38.1276 40.6793 39.2758 39.2758 39.2758C37.8724 39.2758 36.7241 38.1276 36.7241 36.7241C36.7241 35.3207 37.8724 34.1724 39.2758 34.1724ZM23.2895 50.3251C23.7233 50.7716 23.9658 51.3713 23.9658 52.0347C23.9658 53.4382 22.8175 54.5864 21.414 54.5864C21.0568 54.5864 20.7251 54.5099 20.4189 54.3823C19.513 53.9995 18.8623 53.0809 18.8623 52.0347C18.8623 50.6313 20.0106 49.483 21.414 49.483C22.154 49.483 22.8302 49.802 23.2895 50.3251Z" fill="#FF5959"/>
<path fill-rule="evenodd" clip-rule="evenodd" d="M41.8276 64.7931V75H34.1724V64.7931V64.7421C35.3844 64.7803 36.6603 64.7931 38 64.7931C39.3396 64.7931 40.6155 64.7803 41.8276 64.7421V64.7931Z" fill="#FFCC99"/>
<path d="M17.8656 57.9353L15.0345 62.2414C15.0345 62.2414 21.4138 64.7931 38 64.7931C54.5862 64.7931 60.9655 62.2414 60.9655 62.2414L55.5227 54.3872M49.7022 46.0137L49.2059 45.2558C53.7671 44.8833 55.8621 44.3793 55.8621 44.3793L45.1066 27.478C48.901 27.1003 50.7586 26.5172 50.7586 26.5172L38 8.65517L29.282 20.1647M44.3793 45.5378C42.5102 45.6105 40.3897 45.6552 38 45.6552C25.2414 45.6552 20.1379 44.3793 20.1379 44.3793L27.395 33.1351M63.5172 31.6207H60.9655H63.5172ZM62.2414 30.3448V32.8966V30.3448ZM15.0345 3.55172H12.4828H15.0345ZM13.7586 2.27586V4.82759V2.27586ZM22.6897 16.3103H20.1379H22.6897ZM21.4138 15.0345V17.5862V15.0345ZM13.7586 36.7241H8.65517H13.7586ZM11.2069 34.1724V39.2759V34.1724ZM59.6897 8.65517H54.5862H59.6897ZM57.1379 6.10345V11.2069V6.10345ZM34.6853 6.74138L41.316 2.91507L34.6853 6.74138ZM34.6853 2.91379L41.3147 6.74138L34.6853 2.91379ZM38 1V8.65517V1ZM54.5862 49.4828C53.1777 49.4828 52.0345 50.6259 52.0345 52.0345C52.0345 53.443 53.1777 54.5862 54.5862 54.5862C55.9948 54.5862 57.1379 53.443 57.1379 52.0345C57.1379 50.6259 55.9948 49.4828 54.5862 49.4828ZM29.069 23.9655C27.6604 23.9655 26.5172 25.1087 26.5172 26.5172C26.5172 27.9258 27.6604 29.069 29.069 29.069C30.4775 29.069 31.6207 27.9258 31.6207 26.5172C31.6207 25.1087 30.4775 23.9655 29.069 23.9655ZM21.4138 49.4828C20.0052 49.4828 18.8621 50.6259 18.8621 52.0345C18.8621 53.443 20.0052 54.5862 21.4138 54.5862C22.8223 54.5862 23.9655 53.443 23.9655 52.0345C23.9655 50.6259 22.8223 49.4828 21.4138 49.4828ZM36.7241 54.5862C35.3156 54.5862 34.1724 55.7294 34.1724 57.1379C34.1724 58.5465 35.3156 59.6897 36.7241 59.6897C38.1327 59.6897 39.2759 58.5465 39.2759 57.1379C39.2759 55.7294 38.1327 54.5862 36.7241 54.5862ZM39.2759 34.1724C37.8673 34.1724 36.7241 35.3156 36.7241 36.7241C36.7241 38.1327 37.8673 39.2759 39.2759 39.2759C40.6844 39.2759 41.8276 38.1327 41.8276 36.7241C41.8276 35.3156 40.6844 34.1724 39.2759 34.1724ZM72.4483 75H75H72.4483ZM13.7586 75H67.3448H13.7586ZM1 75H8.65517H1ZM41.8276 68.6207V75V68.6207ZM34.1724 68.6207V75V68.6207ZM31.4612 27.5341C31.4612 27.5341 34.1469 27.7931 38 27.7931C38.902 27.7931 39.7518 27.7803 40.5517 27.7561L31.4612 27.5341Z" stroke="#12131A" stroke-linecap="round" stroke-linejoin="round"/>
<path fill-rule="evenodd" clip-rule="evenodd" d="M91.2414 48.6207H87.1034C86.4966 48.6207 86 49.1172 86 49.7241V56.3448C86 56.9517 86.4966 57.4483 87.1034 57.4483H88.2069H99.2414V48.6207H98.9655L91.2414 48.6207V48.6207ZM99.2414 57.4483V74H90.4138C89.1945 74 88.2069 73.0124 88.2069 71.7931V57.4483H99.2414ZM105.31 48.6207H108.621H116.897C117.503 48.6207 118 49.1172 118 49.7241V56.3448C118 56.9517 117.503 57.4483 116.897 57.4483H115.793H104.759V48.6207H105.31ZM115.793 57.4483V71.7931C115.793 73.0124 114.806 74 113.586 74H104.759V57.4483H115.793Z" fill="#CCEEFF"/>
<path fill-rule="evenodd" clip-rule="evenodd" d="M99.2414 74H104.759V48.6207H99.2414V74Z" fill="#FF5959"/>
<path d="M92.069 45.3103C92.069 47.1382 93.5514 48.6207 95.3793 48.6207M108.621 48.6207C110.449 48.6207 111.931 47.1382 111.931 45.3103M115.793 59.6552V71.7931C115.793 73.0119 114.805 74 113.586 74H90.4138C89.195 74 88.2069 73.0119 88.2069 71.7931V59.6552M109.724 71.7931L108.896 70.3586L109.724 71.7931ZM109.724 71.7931L110.552 70.3592L109.724 71.7931ZM108.069 71.7931H111.379H108.069ZM88.9804 53.3103L91.8483 51.6552L88.9804 53.3103ZM88.9804 51.6552L91.8477 53.3103L88.9804 51.6552ZM90.4138 50.8276V54.1379V50.8276ZM110.828 55.2414L109.999 53.8069L110.828 55.2414ZM110.828 55.2414L111.655 53.8074L110.828 55.2414ZM109.172 55.2414H112.483H109.172ZM90.4138 63.5172L91.8483 62.6897L90.4138 63.5172ZM90.4138 63.5172L91.8477 64.3448L90.4138 63.5172ZM90.4138 61.8621V65.1724V61.8621ZM94.4977 69.8621L97.3655 68.2069L94.4977 69.8621ZM94.4977 68.2069L97.365 69.8621L94.4977 68.2069ZM95.931 67.3793V70.6897V67.3793ZM109.946 65.4483L112.814 63.7931L109.946 65.4483ZM109.946 63.7931L112.813 65.4483L109.946 63.7931ZM111.379 62.9655V66.2759V62.9655ZM102 45.3103C102 43.4825 100.518 42 98.6897 42C96.8618 42 95.3793 43.4825 95.3793 45.3103C95.3793 47.1382 96.8618 48.6207 98.6897 48.6207C100.518 48.6207 102 47.1382 102 45.3103ZM108.621 45.3103C108.621 43.4825 107.138 42 105.31 42C103.482 42 102 43.4825 102 45.3103C102 47.1382 103.482 48.6207 105.31 48.6207C107.138 48.6207 108.621 47.1382 108.621 45.3103ZM104.759 50.8276V57.4483V50.8276ZM99.2414 50.8276V57.4483V50.8276ZM104.759 59.6552V74V59.6552ZM99.2414 59.6552V74V59.6552ZM118 49.7241C118 49.115 117.506 48.6207 116.897 48.6207H87.1034C86.4943 48.6207 86 49.115 86 49.7241V56.3448C86 56.9539 86.4943 57.4483 87.1034 57.4483H116.897C117.506 57.4483 118 56.9539 118 56.3448V49.7241Z" stroke="#12131A" stroke-linecap="round" stroke-linejoin="round"/>
</svg>
