<svg width="169" height="60" viewBox="0 0 169 60" fill="none" xmlns="http://www.w3.org/2000/svg">
<path d="M60.2081 33.0059C59.1201 30.6732 58.2518 28.4754 57.5495 26.4753C60.9287 26.7234 64.5016 26.8841 68.2504 26.9307C71.5893 26.973 74.7917 26.9186 77.8392 26.7925C76.7105 28.4921 75.5533 30.3887 74.4042 32.5053C73.8125 33.6024 73.2172 34.7507 72.6452 35.9537C70.8015 39.7987 69.4765 43.3944 68.5161 46.5447C66.4331 43.8889 64.1568 40.5879 62.0108 36.6075C61.3517 35.3792 60.747 34.1761 60.2081 33.0059Z" fill="#3BA27A"/>
<path d="M93.2802 32.4452C92.5595 31.4583 91.8373 30.4832 91.1136 29.4959L89.999 27.9806C89.4768 27.2686 88.9565 26.566 88.4344 25.854C91.4375 25.5062 94.5937 25.0567 97.8746 24.4895C101.359 23.8756 104.667 23.172 107.782 22.4254C107.39 24.6094 106.882 26.9941 106.186 29.5281L105.734 31.1266C105.61 31.518 105.489 31.9158 105.367 32.3136C104.644 34.616 103.855 36.7486 103.054 38.7095C102.786 39.3468 102.528 39.955 102.259 40.5556C101.869 41.4355 101.477 42.2818 101.097 43.0779C100.293 41.9829 99.4802 40.8867 98.6795 39.7891C98.3381 39.3254 97.9967 38.8617 97.6561 38.392C96.2001 36.4131 94.7362 34.4241 93.2802 32.4452Z" fill="#446DB7"/>
<path d="M145.586 8.2109L164.794 19.4126C164.263 15.9965 163.856 12.0888 163.742 7.77198C163.634 3.80564 163.808 0.179683 164.108 -3.03771C161.738 -1.37988 159.214 0.297506 156.548 1.95972C152.763 4.31331 149.096 6.38725 145.586 8.2109ZM40.0042 24.1899C42.9206 24.7249 45.7421 25.1715 48.4558 25.5344C45.9703 28.0407 43.2036 31.2404 40.5423 35.2016C38.6231 38.0547 37.1056 40.7865 35.9012 43.2607C34.6002 40.4354 33.2764 37.151 32.1216 33.4294C30.8062 29.1854 29.9862 25.273 29.4647 21.8734C32.764 22.7162 36.2861 23.5058 40.0042 24.1899Z" fill="#F14947"/>
<path d="M163.912 1.79242C164.016 1.72067 164.04 1.58388 163.968 1.48036L161.937 -1.57617C161.868 -1.6793 161.731 -1.70605 161.628 -1.6343C161.524 -1.56254 161.501 -1.42576 161.569 -1.32262L163.604 1.73429C163.652 1.80443 163.726 1.84438 163.8 1.8387C163.843 1.83514 163.878 1.82145 163.912 1.79242ZM151.413 11.2046C151.519 11.1422 151.552 11.0036 151.48 10.9001L148.753 6.504C148.69 6.39865 148.555 6.36592 148.451 6.43468C148.349 6.49746 148.313 6.63569 148.385 6.73922L151.112 11.1383C151.155 11.2077 151.238 11.2458 151.318 11.2409C151.345 11.2384 151.38 11.2277 151.413 11.2046ZM163.683 7.25972C163.789 7.19732 163.822 7.05871 163.759 6.95635L159.617 -0.0942798C159.555 -0.199634 159.416 -0.235736 159.314 -0.172956C159.212 -0.110175 159.175 0.0280548 159.238 0.133409L163.381 7.17506C163.423 7.2534 163.506 7.29152 163.589 7.28401C163.623 7.28228 163.657 7.27158 163.683 7.25972ZM164.144 13.1263C164.247 13.0635 164.28 12.9249 164.211 12.8218L157.214 1.53499C157.155 1.43302 157.016 1.39691 156.913 1.46866C156.81 1.53144 156.777 1.67006 156.846 1.7732L163.84 13.0596C163.883 13.129 163.966 13.1671 164.045 13.1622C164.073 13.1597 164.108 13.146 164.144 13.1263ZM159.875 16.6395C159.967 16.5603 159.985 16.4227 159.906 16.3304L151.027 5.2078C150.948 5.11248 150.811 5.09471 150.718 5.17697C150.625 5.25625 150.608 5.39082 150.687 5.48614L159.566 16.6087C159.615 16.6699 159.682 16.6997 159.752 16.6936C159.796 16.6811 159.841 16.6686 159.875 16.6395ZM164.917 19.5926C165.02 19.5239 165.044 19.3841 164.976 19.2809L154.099 3.43096C154.028 3.32744 153.891 3.30368 153.787 3.37544C153.687 3.44459 153.66 3.58398 153.732 3.6875L164.608 19.5375C164.657 19.6046 164.732 19.6356 164.803 19.6295C164.848 19.6353 164.883 19.6246 164.917 19.5926ZM103.044 38.7203C102.999 38.7145 102.946 38.7199 102.891 38.7219C102.302 38.7673 101.874 39.2806 101.919 39.8672C101.942 40.1437 102.068 40.388 102.252 40.5638L103.044 38.7203ZM99.0993 37.7637C98.567 37.5064 97.9385 37.7353 97.682 38.2616C97.665 38.2989 97.6435 38.3478 97.6283 38.3945C97.9701 38.8552 98.3086 39.3185 98.6518 39.7916C99.0385 39.7868 99.4082 39.5609 99.5844 39.1854C99.8503 38.6573 99.6312 38.024 99.0993 37.7637ZM105.724 31.1284C105.63 31.171 105.514 31.1986 105.398 31.2078C104.808 31.2532 104.309 30.8117 104.263 30.2251C104.22 29.6419 104.654 29.1294 105.237 29.0832C105.621 29.0538 105.966 29.2351 106.177 29.5269L105.724 31.1284ZM100.338 33.0714C99.7577 33.115 99.3203 33.6301 99.3665 34.2137C99.4093 34.7999 99.921 35.24 100.502 35.1934C101.082 35.1498 101.519 34.6378 101.473 34.0511C101.43 33.4679 100.918 33.0278 100.338 33.0714ZM101.837 24.9529C101.256 24.9994 100.819 25.5115 100.865 26.0981C100.908 26.6814 101.42 27.1215 102 27.0779C102.58 27.0343 103.018 26.5192 102.972 25.9356C102.929 25.3493 102.427 24.9074 101.837 24.9529ZM96.5403 28.6739C95.9601 28.7175 95.523 29.2295 95.5688 29.8162C95.612 30.3994 96.1233 30.8425 96.7039 30.7959C97.2842 30.7523 97.7213 30.2402 97.6784 29.654C97.6323 29.0704 97.1299 28.6284 96.5403 28.6739ZM90.8426 27.3812C90.4497 27.4095 90.1263 27.6535 89.9716 27.9802L91.0858 29.4984C91.6371 29.4206 92.0228 28.9293 91.9807 28.3614C91.9438 27.7759 91.4322 27.3358 90.8426 27.3812ZM30.0559 25.2516L36.4525 23.7006C36.5655 23.6726 36.6483 23.5495 36.6114 23.4353C36.5745 23.3211 36.4633 23.2398 36.3465 23.2734L29.9499 24.8244C29.8369 24.8523 29.7541 24.9754 29.791 25.0896C29.8167 25.1963 29.9137 25.2697 30.021 25.2623C30.0375 25.2522 30.0469 25.2504 30.0559 25.2516ZM30.6654 28.0636L42.2427 24.7954C42.3565 24.7614 42.4273 24.6368 42.3904 24.5226C42.3569 24.4057 42.2352 24.3353 42.121 24.3722L30.5437 27.6405C30.4299 27.6744 30.3591 27.799 30.393 27.9128C30.4187 28.0195 30.5228 28.0847 30.6212 28.0761C30.6317 28.0653 30.6471 28.0642 30.6654 28.0636ZM31.391 30.9423L48.5167 25.7459C48.6309 25.709 48.7013 25.5874 48.6648 25.4701C48.6309 25.3563 48.5062 25.2855 48.3954 25.3198L31.2697 30.5162C31.1525 30.5527 31.0821 30.6743 31.1186 30.7915C31.1537 30.8964 31.247 30.951 31.345 30.9454C31.3651 30.9541 31.3727 30.9429 31.391 30.9423ZM32.1914 33.6421L45.9854 28.4652C46.0978 28.419 46.1589 28.2992 46.1141 28.1748C46.0682 28.0594 45.9484 27.9983 45.8241 28.0431L32.0323 33.2263C31.9199 33.2726 31.8554 33.395 31.9031 33.5198C31.9364 33.6153 32.0293 33.6729 32.1277 33.6643C32.1472 33.6547 32.1719 33.6518 32.1914 33.6421ZM33.0954 36.3159L43.7794 31.1141C43.8926 31.0618 43.9339 30.9304 43.8816 30.8172C43.8263 30.7036 43.6982 30.6597 43.5851 30.712L32.9041 35.9141C32.791 35.9664 32.7467 36.0975 32.7989 36.2107C32.8423 36.2984 32.9274 36.3458 33.0164 36.3391C33.0441 36.3366 33.07 36.3247 33.0954 36.3159ZM34.0776 38.9267L40.9852 34.9031C41.0902 34.8437 41.1233 34.7051 41.0703 34.5979C41.0105 34.4959 40.8722 34.4598 40.7681 34.5132L33.8604 38.5369C33.7551 38.5993 33.7219 38.7379 33.7754 38.8421C33.8169 38.9204 33.9002 38.9585 33.9799 38.9536C34.0187 38.9586 34.0442 38.9498 34.0776 38.9267ZM34.8528 40.8328L38.6343 38.5791C38.7367 38.5163 38.7728 38.3781 38.7104 38.2727C38.6476 38.1704 38.5094 38.1343 38.407 38.1971L34.6255 40.4508C34.5232 40.5136 34.4901 40.6522 34.5495 40.7572C34.591 40.8355 34.6773 40.874 34.7573 40.8661C34.7921 40.8554 34.8198 40.8529 34.8528 40.8328ZM118.42 19.4827L134.695 34.3764C135.366 31.9882 135.985 29.3806 136.486 26.5631C137.44 21.1833 137.757 16.2807 137.738 12.0552C134.742 13.4255 131.522 14.794 128.093 16.1082C124.74 17.3959 121.501 18.5126 118.42 19.4827ZM11.8426 16.3705C14.7198 17.4446 17.5153 18.3987 20.2053 19.251C18.1824 21.1178 16.0865 23.1972 13.9627 25.5162C10.7106 29.0605 7.96783 32.546 5.66439 35.7843C4.45662 32.1197 3.31272 27.8431 2.45832 23.0202C1.74528 19.0091 1.36385 15.3023 1.17798 11.9643C4.48613 13.4681 8.04008 14.9519 11.8426 16.3705Z" fill="#F9B53F"/>
<path d="M81.244 26.0893C83.1407 25.9513 85.0417 25.7804 86.9773 25.5775C123.79 21.6421 151.247 6.09361 167.798 -6.25488C167.993 -6.39694 168.265 -6.36178 168.416 -6.16593C168.557 -5.96824 168.525 -5.69274 168.329 -5.54171C151.684 6.87671 124.08 22.5065 87.0705 26.456C85.4114 26.6369 83.76 26.7823 82.1356 26.9068C81.0544 26.9921 79.9717 27.065 78.9067 27.1189C43.2145 29.1561 14.3259 19.1054 -4.12703 9.93806C-4.34088 9.82835 -4.4344 9.56391 -4.32613 9.33772C-4.21602 9.12088 -3.95458 9.02697 -3.72877 9.13824C15.0219 18.4718 44.6552 28.7129 81.244 26.0893Z" fill="#F79748"/>
</svg>
