<svg width="320" height="110" viewBox="0 0 320 110" fill="none" xmlns="http://www.w3.org/2000/svg">
<g clip-path="url(#clip0_1_12)">
<path d="M0 3.80247C0 1.70242 1.70242 0 3.80247 0H316.198C318.298 0 320 1.70242 320 3.80247C320 62.4537 272.454 110 213.802 110H106.198C47.5463 110 0 62.4537 0 3.80247Z" fill="#FED766"/>
<g clip-path="url(#clip1_1_12)">
<mask id="mask0_1_12" style="mask-type:luminance" maskUnits="userSpaceOnUse" x="29" y="17" width="262" height="76">
<path d="M291 17H29V93H291V17Z" fill="white"/>
</mask>
<g mask="url(#mask0_1_12)">
<path d="M160.678 93C127.631 92.3931 97.2529 83.7784 70.6828 63.5145C61.0379 56.1608 52.76 47.4695 46.0486 37.3111C45.6144 36.657 45.1451 36.0206 44.8048 35.3194C44.0363 33.7285 44.2358 32.1906 45.6144 31.0769C47.0635 29.9102 48.7531 29.816 50.1552 31.1182C65.2502 45.1479 83.7654 52.1776 103.266 56.974C130.177 63.597 157.486 64.964 185.024 62.4067C206.52 60.4092 227.446 56.0724 247.217 47.0217C255.888 43.0561 263.908 38.0948 271.036 31.7133C272.549 30.3639 274.274 29.6097 276.034 31.0298C277.888 32.5265 277.73 34.4002 276.374 36.2328C276.146 36.5451 275.97 36.9045 275.753 37.2286C269.78 46.1791 262.599 54.0278 254.31 60.8512C233.366 78.0982 209.166 87.6262 182.519 91.3914C175.245 92.4344 167.941 92.7761 160.678 93Z" fill="#2E2E2E"/>
<path d="M29.0059 33.0921C29.1701 23.8234 37.6181 16.1161 47.1104 17.1296C50.0027 17.4419 51.3872 18.7559 51.1174 21.0952C50.8123 23.7468 49.0464 24.2358 46.7056 24.1887C40.1995 24.0473 35.7232 28.4194 35.8992 34.5652C35.9931 37.8473 35.0016 39.3675 32.7195 39.4559C30.4432 39.5443 29.1643 37.9474 29.0117 34.8421C28.9883 34.4473 29.0059 34.0584 29.0059 33.0921Z" fill="#2E2E2E"/>
<path d="M290.977 33.0686C290.894 34.7538 290.971 35.6612 290.783 36.5097C290.337 38.4778 289.082 39.6032 287.005 39.4205C284.916 39.2379 283.837 37.8767 283.854 35.8674C283.866 34.194 284.042 32.5206 283.52 30.9119C282.218 26.8933 278.428 24.1769 274.18 24.1357C273.693 24.1298 273.201 24.1416 272.714 24.1828C270.343 24.3655 268.836 23.2342 268.712 20.9184C268.589 18.5792 270.173 17.4655 272.379 17.1414C279.853 16.0337 288.008 21.4016 290.226 28.9439C290.695 30.5466 291.094 32.1729 290.977 33.0686Z" fill="#2E2E2E"/>
</g>
</g>
</g>
<defs>
<clipPath id="clip0_1_12">
<rect width="320" height="110" fill="white"/>
</clipPath>
<clipPath id="clip1_1_12">
<rect width="262" height="76" fill="white" transform="translate(29 17)"/>
</clipPath>
</defs>
</svg>
