<svg width="20" height="18" viewBox="0 0 20 18" fill="none" xmlns="http://www.w3.org/2000/svg">
<path fill-rule="evenodd" clip-rule="evenodd" d="M3.24532 14.2577C2.44841 13.4607 2.00073 12.3798 2.00073 11.2527C2.00073 10.1256 2.44841 9.04472 3.24532 8.2477L9.78532 1.7077C9.97296 1.52019 10.0784 1.26583 10.0785 1.00056C10.0786 0.735286 9.97332 0.480843 9.78582 0.293203C9.59831 0.105562 9.34394 9.38352e-05 9.07867 6.25837e-08C8.8134 -9.371e-05 8.55896 0.105194 8.37132 0.292702L1.83132 6.8327C0.659061 8.00469 0.000389099 9.59436 0.000202179 11.252C1.52588e-05 12.9096 0.658327 14.4994 1.83032 15.6717C3.00231 16.844 4.59198 17.5026 6.24961 17.5028C7.90724 17.503 9.49706 16.8447 10.6693 15.6727L18.6233 7.7177C19.4674 6.87352 19.9415 5.72861 19.9414 4.53485C19.9413 3.34109 19.467 2.19625 18.6228 1.3522C17.7786 0.508151 16.6337 0.0340207 15.44 0.0341144C14.2462 0.0342082 13.1014 0.508518 12.2573 1.3527L4.30432 9.3057C3.80074 9.82436 3.52146 10.5203 3.52683 11.2432C3.53221 11.9661 3.82181 12.6579 4.33305 13.169C4.84429 13.6801 5.53611 13.9695 6.259 13.9747C6.98189 13.9799 7.67779 13.7004 8.19632 13.1967L15.4423 5.9497C15.63 5.76219 15.7354 5.50783 15.7355 5.24256C15.7356 4.97729 15.6303 4.72284 15.4428 4.5352C15.2553 4.34756 15.0009 4.24209 14.7357 4.242C14.4704 4.24191 14.216 4.34719 14.0283 4.5347L6.78132 11.7817C6.64049 11.9227 6.44943 12.0019 6.25017 12.002C6.05091 12.0021 5.85978 11.923 5.71882 11.7822C5.57786 11.6414 5.49861 11.4503 5.49852 11.2511C5.49842 11.0518 5.57749 10.8607 5.71832 10.7197L13.6713 2.7667C13.9035 2.53439 14.1792 2.35009 14.4826 2.22432C14.786 2.09854 15.1112 2.03376 15.4396 2.03367C15.7681 2.03357 16.0933 2.09817 16.3968 2.22378C16.7002 2.34938 16.976 2.53353 17.2083 2.7657C17.6775 3.23461 17.9412 3.87068 17.9414 4.534C17.9415 5.19731 17.6782 5.83353 17.2093 6.3027L9.25532 14.2567C8.4583 15.0536 7.37739 15.5013 6.25032 15.5013C5.12325 15.5013 4.04233 15.0536 3.24532 14.2567V14.2577Z" fill="#3454D1"/>
</svg>
