<svg width="26" height="26" viewBox="0 0 26 26" fill="none" xmlns="http://www.w3.org/2000/svg">
<path d="M26 20.4286V26H0V20.4286C0.435268 20.4286 0.846354 20.3609 1.23326 20.2254C1.62016 20.09 1.90551 19.957 2.08929 19.8265C2.27307 19.6959 2.50037 19.5145 2.77121 19.2824C3.06138 19.0212 3.31045 18.8374 3.51841 18.731C3.72638 18.6246 3.99963 18.5714 4.33817 18.5714C4.57031 18.5714 4.78311 18.6053 4.97656 18.673C5.17001 18.7407 5.31994 18.8132 5.42634 18.8906C5.53274 18.968 5.69234 19.0986 5.90513 19.2824C6.18564 19.5242 6.41295 19.708 6.58705 19.8337C6.76116 19.9594 7.04167 20.09 7.42857 20.2254C7.81548 20.3609 8.2314 20.4286 8.67634 20.4286C9.11161 20.4286 9.52269 20.3584 9.9096 20.2182C10.2965 20.0779 10.577 19.9474 10.7511 19.8265C10.9252 19.7055 11.1574 19.5242 11.4475 19.2824C11.6507 19.0986 11.8078 18.968 11.9191 18.8906C12.0303 18.8132 12.1802 18.7407 12.3689 18.673C12.5575 18.6053 12.7679 18.5714 13 18.5714C13.3385 18.5714 13.6118 18.6246 13.8198 18.731C14.0277 18.8374 14.2768 19.0212 14.567 19.2824C14.8378 19.5145 15.0651 19.6959 15.2489 19.8265C15.4327 19.957 15.718 20.09 16.1049 20.2254C16.4918 20.3609 16.9029 20.4286 17.3382 20.4286C17.7734 20.4286 18.1845 20.3609 18.5714 20.2254C18.9583 20.09 19.2437 19.957 19.4275 19.8265C19.6112 19.6959 19.8385 19.5145 20.1094 19.2824C20.3996 19.0212 20.6486 18.8374 20.8566 18.731C21.0645 18.6246 21.3378 18.5714 21.6763 18.5714C22.0052 18.5714 22.2736 18.6246 22.4816 18.731C22.6895 18.8374 22.9386 19.0212 23.2288 19.2824C23.4996 19.5145 23.7269 19.6959 23.9107 19.8265C24.0945 19.957 24.3798 20.09 24.7667 20.2254C25.1536 20.3609 25.5647 20.4286 26 20.4286ZM26 15.7857V18.5714C25.7679 18.5714 25.5551 18.5376 25.3616 18.4699C25.1682 18.4022 25.0182 18.3296 24.9118 18.2522C24.8054 18.1749 24.6458 18.0443 24.433 17.8605C24.1525 17.6187 23.9252 17.4349 23.7511 17.3092C23.577 17.1834 23.2965 17.0528 22.9096 16.9174C22.5227 16.782 22.1116 16.7143 21.6763 16.7143C21.2314 16.7143 20.8155 16.782 20.4286 16.9174C20.0417 17.0528 19.7612 17.1834 19.5871 17.3092C19.4129 17.4349 19.1856 17.6187 18.9051 17.8605C18.6923 18.0443 18.5327 18.1749 18.4263 18.2522C18.3199 18.3296 18.17 18.4022 17.9766 18.4699C17.7831 18.5376 17.5703 18.5714 17.3382 18.5714C16.9996 18.5714 16.7264 18.5182 16.5184 18.4118C16.3105 18.3054 16.0614 18.1217 15.7712 17.8605C15.4907 17.6187 15.2634 17.4349 15.0893 17.3092C14.9152 17.1834 14.6347 17.0528 14.2478 16.9174C13.8609 16.782 13.4449 16.7143 13 16.7143C12.5647 16.7143 12.1536 16.7844 11.7667 16.9247C11.3798 17.0649 11.0993 17.1955 10.9252 17.3164C10.7511 17.4373 10.519 17.6187 10.2288 17.8605C10.0257 18.0443 9.86849 18.1749 9.75725 18.2522C9.64602 18.3296 9.49609 18.4022 9.30748 18.4699C9.11886 18.5376 8.90848 18.5714 8.67634 18.5714C8.3378 18.5714 8.06455 18.5182 7.85658 18.4118C7.64862 18.3054 7.39955 18.1217 7.10938 17.8605C6.83854 17.6283 6.61124 17.447 6.42745 17.3164C6.24368 17.1858 5.95833 17.0528 5.57143 16.9174C5.18452 16.782 4.77344 16.7143 4.33817 16.7143C3.89323 16.7143 3.47731 16.782 3.0904 16.9174C2.7035 17.0528 2.42299 17.1834 2.24888 17.3092C2.07478 17.4349 1.84747 17.6187 1.56696 17.8605C1.27679 18.1217 1.02772 18.3054 0.819754 18.4118C0.611793 18.5182 0.338542 18.5714 0 18.5714V15.7857C0 15.0119 0.270833 14.3542 0.8125 13.8125C1.35417 13.2708 2.0119 13 2.78571 13H3.71429V6.5H7.42857V13H11.1429V6.5H14.8571V13H18.5714V6.5H22.2857V13H23.2143C23.9881 13 24.6458 13.2708 25.1875 13.8125C25.7292 14.3542 26 15.0119 26 15.7857ZM7.42857 3.25C7.42857 3.99479 7.25446 4.56789 6.90625 4.96931C6.55804 5.37072 6.1131 5.57143 5.57143 5.57143C5.05878 5.57143 4.62109 5.39007 4.25837 5.02734C3.89565 4.66462 3.71429 4.22693 3.71429 3.71429C3.71429 3.43378 3.76023 3.18713 3.85212 2.97433C3.94401 2.76153 4.05766 2.5971 4.19308 2.48103C4.3285 2.36496 4.47842 2.22954 4.64286 2.07478C4.80729 1.92001 4.95722 1.76767 5.09263 1.61775C5.22805 1.46782 5.3417 1.2526 5.43359 0.972098C5.52548 0.691592 5.57143 0.36756 5.57143 0C5.93899 0 6.3404 0.357887 6.77567 1.07366C7.21094 1.78943 7.42857 2.51488 7.42857 3.25ZM14.8571 3.25C14.8571 3.99479 14.683 4.56789 14.3348 4.96931C13.9866 5.37072 13.5417 5.57143 13 5.57143C12.4874 5.57143 12.0497 5.39007 11.6869 5.02734C11.3242 4.66462 11.1429 4.22693 11.1429 3.71429C11.1429 3.43378 11.1888 3.18713 11.2807 2.97433C11.3726 2.76153 11.4862 2.5971 11.6217 2.48103C11.7571 2.36496 11.907 2.22954 12.0714 2.07478C12.2359 1.92001 12.3858 1.76767 12.5212 1.61775C12.6566 1.46782 12.7703 1.2526 12.8622 0.972098C12.9541 0.691592 13 0.36756 13 0C13.3676 0 13.769 0.357887 14.2042 1.07366C14.6395 1.78943 14.8571 2.51488 14.8571 3.25ZM22.2857 3.25C22.2857 3.99479 22.1116 4.56789 21.7634 4.96931C21.4152 5.37072 20.9702 5.57143 20.4286 5.57143C19.9159 5.57143 19.4782 5.39007 19.1155 5.02734C18.7528 4.66462 18.5714 4.22693 18.5714 3.71429C18.5714 3.43378 18.6174 3.18713 18.7093 2.97433C18.8012 2.76153 18.9148 2.5971 19.0502 2.48103C19.1856 2.36496 19.3356 2.22954 19.5 2.07478C19.6644 1.92001 19.8144 1.76767 19.9498 1.61775C20.0852 1.46782 20.1988 1.2526 20.2907 0.972098C20.3826 0.691592 20.4286 0.36756 20.4286 0C20.7961 0 21.1975 0.357887 21.6328 1.07366C22.0681 1.78943 22.2857 2.51488 22.2857 3.25Z" fill="#3454D1"/>
</svg>
