<svg width="21" height="26" viewBox="0 0 21 26" fill="none" xmlns="http://www.w3.org/2000/svg">
<path d="M10.4 13C11.115 13 11.7273 12.7452 12.2369 12.2356C12.7456 11.7269 13 11.115 13 10.4C13 9.685 12.7456 9.0727 12.2369 8.5631C11.7273 8.05437 11.115 7.8 10.4 7.8C9.685 7.8 9.07313 8.05437 8.5644 8.5631C8.0548 9.0727 7.8 9.685 7.8 10.4C7.8 11.115 8.0548 11.7269 8.5644 12.2356C9.07313 12.7452 9.685 13 10.4 13ZM10.4 26C6.91167 23.0317 4.30647 20.2744 2.5844 17.7281C0.861466 15.1827 0 12.8267 0 10.66C0 7.41 1.04563 4.82083 3.1369 2.8925C5.2273 0.964166 7.64833 0 10.4 0C13.1517 0 15.5727 0.964166 17.6631 2.8925C19.7544 4.82083 20.8 7.41 20.8 10.66C20.8 12.8267 19.939 15.1827 18.2169 17.7281C16.494 20.2744 13.8883 23.0317 10.4 26Z" fill="#3454D1"/>
</svg>
