<svg width="22" height="16" viewBox="0 0 22 16" fill="none" xmlns="http://www.w3.org/2000/svg">
<path d="M0.0666667 2.07333C0.201091 1.48432 0.53154 0.958417 1.0039 0.581744C1.47625 0.205072 2.06251 -4.06592e-05 2.66667 6.04552e-09H18.6667C19.2708 -4.06592e-05 19.8571 0.205072 20.3294 0.581744C20.8018 0.958417 21.1322 1.48432 21.2667 2.07333L10.6667 8.552L0.0666667 2.07333ZM0 3.596V13.068L7.73733 8.324L0 3.596ZM9.01467 9.10667L0.254667 14.476C0.471102 14.9324 0.812702 15.3179 1.23971 15.5877C1.66672 15.8575 2.16157 16.0005 2.66667 16H18.6667C19.1717 16.0001 19.6664 15.8568 20.0931 15.5868C20.5199 15.3168 20.8612 14.9311 21.0773 14.4747L12.3173 9.10533L10.6667 10.1147L9.01467 9.10667ZM13.596 8.32533L21.3333 13.068V3.596L13.596 8.324V8.32533Z" fill="#3454D1"/>
</svg>
