<svg width="12" height="14" viewBox="0 0 12 14" fill="none" xmlns="http://www.w3.org/2000/svg">
<path d="M5.85816 1.73364e-09C6.50069 -2.39967e-05 7.11821 0.249107 7.58085 0.695003C8.04348 1.1409 8.31519 1.74882 8.33884 2.39092L8.34043 2.48267L11.0213 2.48227C11.2006 2.48235 11.373 2.55174 11.5023 2.67593C11.6317 2.80013 11.708 2.96951 11.7154 3.14868C11.7228 3.32786 11.6606 3.50295 11.5419 3.63737C11.4232 3.77179 11.2572 3.85512 11.0785 3.86996L11.0213 3.87234H10.5578L9.9116 12.4391C9.87955 12.8636 9.68831 13.2603 9.37619 13.5497C9.06406 13.8392 8.6541 14 8.22843 14H3.48789C3.06221 14 2.65225 13.8392 2.34013 13.5497C2.028 13.2603 1.83676 12.8636 1.80471 12.4391L1.15813 3.87234H0.695035C0.520542 3.87233 0.352438 3.80668 0.224116 3.68844C0.0957934 3.57019 0.0166414 3.40801 0.00238281 3.2341L0 3.1773C1.47216e-05 3.00281 0.0656634 2.83471 0.183906 2.70639C0.302148 2.57806 0.464332 2.49891 0.638241 2.48465L0.695035 2.48227H3.37589C3.37589 1.17243 4.39064 0.0992907 5.67705 0.00635453L5.76721 0.00158873L5.85816 1.73364e-09ZM7.34752 5.16312C7.22461 5.16306 7.10606 5.2086 7.01479 5.29092C6.92352 5.37323 6.86603 5.48648 6.85345 5.60874L6.85106 5.65957V10.4255L6.85345 10.4764C6.86551 10.599 6.92277 10.7128 7.01409 10.7956C7.10541 10.8784 7.22426 10.9242 7.34752 10.9242C7.47077 10.9242 7.58962 10.8784 7.68094 10.7956C7.77227 10.7128 7.82953 10.599 7.84159 10.4764L7.84397 10.4255V5.65957L7.84159 5.60874C7.829 5.48648 7.77151 5.37323 7.68025 5.29092C7.58898 5.2086 7.47042 5.16306 7.34752 5.16312ZM4.36879 5.16312C4.24589 5.16306 4.12733 5.2086 4.03607 5.29092C3.9448 5.37323 3.88731 5.48648 3.87472 5.60874L3.87234 5.65957V10.4255L3.87472 10.4764C3.88679 10.599 3.94405 10.7128 4.03537 10.7956C4.12669 10.8784 4.24554 10.9242 4.36879 10.9242C4.49205 10.9242 4.6109 10.8784 4.70222 10.7956C4.79354 10.7128 4.8508 10.599 4.86286 10.4764L4.86525 10.4255V5.65957L4.86286 5.60874C4.85028 5.48648 4.79279 5.37323 4.70152 5.29092C4.61026 5.2086 4.4917 5.16306 4.36879 5.16312ZM5.92488 1.39206L5.85816 1.39007C5.58003 1.39006 5.31237 1.49615 5.10978 1.68671C4.90719 1.87727 4.78493 2.13794 4.76794 2.41555L4.76596 2.48267L6.95035 2.48227C6.95037 2.20414 6.84428 1.93649 6.65372 1.7339C6.46316 1.53131 6.20249 1.40905 5.92488 1.39206Z" fill="#3454D1"/>
</svg>
