<svg width="62" height="51" viewBox="0 0 62 51" fill="none" xmlns="http://www.w3.org/2000/svg">
<path d="M38.2574 7.84615H54.0614C55.1645 7.84604 56.2554 8.07317 57.2647 8.51304C58.274 8.95292 59.1794 9.59589 59.9233 10.4009C60.6672 11.206 61.2331 12.1555 61.5851 13.1888C61.937 14.2221 62.0672 15.3166 61.9674 16.4024L59.4393 43.8639C59.26 45.8134 58.3501 47.6262 56.8881 48.9465C55.4261 50.2668 53.5176 50.9992 51.5372 51H10.4634C8.4831 50.9992 6.57459 50.2668 5.11257 48.9465C3.65055 47.6262 2.74061 45.8134 2.56139 43.8639L0.0332226 16.4024C-0.135906 14.5851 0.344358 12.7668 1.39058 11.2632L1.23579 7.84615C1.23579 5.76522 2.07209 3.76952 3.5607 2.29809C5.04931 0.826646 7.06831 0 9.17353 0H23.7472C25.8523 0.000444386 27.8709 0.827382 29.3592 2.29892L32.6454 5.54723C34.1337 7.01877 36.1524 7.84571 38.2574 7.84615ZM5.22847 8.31692C6.07781 8.01092 6.99065 7.84615 7.94318 7.84615H29.3592L26.5532 5.07254C25.8091 4.33677 24.7997 3.9233 23.7472 3.92308H9.17353C8.13385 3.92289 7.13562 4.32597 6.39344 5.04564C5.65127 5.76532 5.22441 6.74412 5.20466 7.77162L5.22847 8.31692Z" fill="#FED766"/>
</svg>
