<svg width="12" height="6" viewBox="0 0 12 6" fill="none" xmlns="http://www.w3.org/2000/svg">
<path d="M11.9999 0.895977C12.0004 1.01125 11.9721 1.12514 11.9172 1.22928C11.8624 1.33343 11.7823 1.42518 11.6828 1.4978L6.54046 5.22447C6.3871 5.33795 6.19474 5.39999 5.99622 5.39999C5.7977 5.39999 5.60534 5.33795 5.45199 5.22447L0.309615 1.36663C0.134589 1.23567 0.0245214 1.04748 0.00362646 0.843452C-0.0172685 0.63943 0.0527208 0.436291 0.198197 0.278724C0.343674 0.121157 0.552721 0.022069 0.779351 0.00325867C1.00598 -0.0155521 1.23163 0.0474553 1.40665 0.17842L6.00051 3.62733L10.5944 0.294155C10.7202 0.199805 10.8734 0.139872 11.0358 0.121448C11.1983 0.103023 11.3632 0.126877 11.5111 0.190189C11.6589 0.2535 11.7835 0.353619 11.8702 0.478698C11.9568 0.603777 12.0019 0.748582 11.9999 0.895977Z" fill="#AEB3C3"/>
</svg>
