<svg width="9" height="20" viewBox="0 0 9 20" fill="none" xmlns="http://www.w3.org/2000/svg">
<path d="M7.50669 19.9999C7.31458 20.0006 7.12476 19.9535 6.95118 19.8621C6.77761 19.7706 6.62469 19.6371 6.50366 19.4714L0.292537 10.9008C0.103398 10.6452 0 10.3246 0 9.9937C0 9.66284 0.103398 9.34224 0.292537 9.08665L6.72227 0.516026C6.94054 0.224316 7.2542 0.0408693 7.59423 0.00604443C7.93427 -0.0287805 8.27284 0.0878684 8.53545 0.330329C8.79806 0.57279 8.96321 0.921202 8.99456 1.29892C9.02591 1.67663 8.9209 2.05271 8.70262 2.34442L2.95444 10.0008L8.50973 17.6573C8.66698 17.8669 8.76687 18.1223 8.79758 18.393C8.82828 18.6638 8.78853 18.9386 8.68301 19.1851C8.57749 19.4315 8.41062 19.6392 8.20216 19.7836C7.99369 19.928 7.75235 20.0031 7.50669 19.9999Z" fill="#3454D1"/>
</svg>
