<svg width="26" height="24" viewBox="0 0 26 24" fill="none" xmlns="http://www.w3.org/2000/svg">
<path d="M25.5678 11.2164C25.5678 12.4874 25.5686 13.7576 25.5678 15.0287C25.5669 15.8711 24.8693 16.5671 24.0088 16.5696C22.0746 16.5745 20.1405 16.5729 18.2063 16.5688C18.0689 16.5688 18.0138 16.5935 17.9875 16.7473C17.7103 18.3655 17.4207 19.9821 17.136 21.5995C17.0677 21.9895 17.0291 22.3868 16.9361 22.771C16.7526 23.5361 15.9991 24.0355 15.2364 23.9253C14.4861 23.8167 13.8831 23.1059 13.9218 22.3383C13.9407 21.9648 14.0147 21.5946 14.0666 21.2227C14.2056 20.2289 14.3446 19.2343 14.4853 18.2405C14.6243 17.2524 14.7642 16.2636 14.9057 15.2755C14.9328 15.0846 14.9312 14.8905 14.9773 14.7013C15.1574 13.9625 15.7703 13.482 16.5248 13.4829C17.9834 13.4845 19.4428 13.4804 20.9015 13.4862C21.043 13.487 21.0841 13.459 21.0833 13.3085C21.0775 11.3965 21.094 9.48459 21.0718 7.57265C21.0644 6.90792 21.3507 6.45873 21.8903 6.13212C22.829 5.56364 24.235 5.65661 25.0487 6.34191C25.3909 6.62985 25.5752 6.98937 25.5719 7.45172C25.562 8.70714 25.5686 9.96175 25.5678 11.2164C25.5686 11.2164 25.5678 11.2164 25.5678 11.2164Z" fill="#AEB3C3"/>
<path d="M0.348002 11.4494C0.348002 10.3058 0.370215 9.16066 0.339775 8.01794C0.320031 7.27835 0.654043 6.78309 1.28176 6.48856C2.31094 6.00564 3.32696 6.04596 4.26895 6.72303C4.65643 7.00192 4.84483 7.39517 4.84236 7.89125C4.83249 9.72009 4.83989 11.5498 4.83496 13.3786C4.83413 13.5201 4.8728 13.5472 5.00772 13.5472C6.47787 13.5423 7.9472 13.5456 9.41734 13.5448C10.2343 13.544 10.9064 14.1881 10.9821 14.9993C11.0454 15.6797 11.1582 16.3559 11.2519 17.033C11.3786 17.9454 11.5078 18.8569 11.6353 19.7693C11.7513 20.5936 11.8558 21.4204 11.9866 22.2431C12.1191 23.0789 11.4025 23.9526 10.5559 23.9979C9.71845 24.0423 8.97474 23.3792 8.90892 22.4677C8.87766 22.0358 8.774 21.6088 8.69831 21.1802C8.4729 19.8992 8.24666 18.6183 8.01959 17.3382C7.98833 17.1589 7.93979 16.9812 7.92745 16.801C7.91676 16.6488 7.85094 16.629 7.71849 16.6299C6.11013 16.634 4.50259 16.6323 2.89423 16.6323C2.59066 16.6323 2.28626 16.6216 1.98269 16.634C1.17645 16.6669 0.323321 16.0112 0.343066 14.9985C0.365279 13.8146 0.348002 12.6316 0.348002 11.4494Z" fill="#AEB3C3"/>
<path d="M16.9121 8.09693C16.9121 8.50005 16.9096 8.90316 16.9137 9.30628C16.9145 9.39842 16.8907 9.45108 16.8051 9.50044C15.9166 10.0138 14.9656 10.3371 13.9463 10.4622C12.3124 10.6629 10.7797 10.3503 9.3359 9.56625C9.17218 9.4774 9.10555 9.38115 9.10884 9.18699C9.12282 8.45233 9.11048 7.71767 9.11624 6.983C9.12118 6.3339 9.54568 5.80326 10.1619 5.66834C10.268 5.64531 10.3807 5.64366 10.491 5.64366C10.9936 5.64119 11.4963 5.64613 11.9989 5.63955C12.1051 5.6379 12.1692 5.6741 12.2351 5.75308C12.4638 6.0295 12.7032 6.29688 12.9319 6.57413C12.9985 6.65475 13.0314 6.65886 13.1005 6.57495C13.3358 6.28947 13.5802 6.01223 13.8187 5.72922C13.8681 5.67081 13.9183 5.64037 13.9997 5.64119C14.5518 5.64613 15.1046 5.63626 15.6566 5.64778C16.3296 5.66176 16.8898 6.22695 16.9063 6.90402C16.9162 7.30138 16.9079 7.69957 16.9079 8.09693C16.9096 8.09693 16.9112 8.09693 16.9121 8.09693Z" fill="#AEB3C3"/>
<path d="M13.0158 5.22903C11.5802 5.22903 10.4293 4.0789 10.4293 2.64249C10.4293 1.20854 11.5843 0.0510101 13.0158 0.0510101C14.4407 0.0510101 15.6097 1.22005 15.6089 2.64249C15.6073 4.0715 14.4473 5.22903 13.0158 5.22903Z" fill="#AEB3C3"/>
<path d="M23.2772 7.11512e-06C24.7079 0.00329788 25.8646 1.16823 25.8572 2.59806C25.8498 4.02132 24.6783 5.18131 23.2517 5.17802C21.826 5.17473 20.6718 4.00651 20.6783 2.57256C20.6849 1.13532 21.835 -0.00328365 23.2772 7.11512e-06Z" fill="#AEB3C3"/>
<path d="M5.17966 2.82841C5.18049 4.2566 4.01885 5.41741 2.59066 5.41741C1.1674 5.41659 -0.00246417 4.24508 3.89803e-06 2.82265C0.00247197 1.39199 1.16247 0.238575 2.59559 0.240221C4.03201 0.241866 5.17884 1.39034 5.17966 2.82841Z" fill="#AEB3C3"/>
<path d="M12.8924 12.6604C10.876 12.6604 8.85956 12.6604 6.84314 12.6604C6.43262 12.6604 6.2615 12.4893 6.26068 12.0787C6.26068 11.9627 6.25657 11.8467 6.26315 11.7307C6.27713 11.4856 6.46553 11.3005 6.71151 11.2857C6.76663 11.2824 6.82175 11.2832 6.87687 11.2832C10.8875 11.2832 14.8981 11.2832 18.9087 11.2832C19.0354 11.2832 19.1605 11.2774 19.2773 11.3474C19.5883 11.5349 19.5109 11.841 19.52 12.1207C19.5266 12.3288 19.4501 12.4975 19.2633 12.6053C19.1629 12.6637 19.0519 12.6604 18.9416 12.6604C16.9252 12.6604 14.9088 12.6604 12.8924 12.6604Z" fill="#AEB3C3"/>
<path d="M3.80824 18.5903C2.75273 18.5903 1.69722 18.5903 0.641707 18.5903C0.382559 18.5903 0.255865 18.5064 0.213085 18.2547C0.17195 18.0112 0.162901 17.7594 0.222135 17.5151C0.276432 17.293 0.386673 17.2148 0.612913 17.214C2.74615 17.2132 4.87856 17.2132 7.0118 17.214C7.25038 17.214 7.40176 17.3505 7.41903 17.5982C7.43302 17.7964 7.4322 17.9964 7.41986 18.1946C7.40422 18.4587 7.25367 18.5895 6.99041 18.5895C5.92996 18.5903 4.86951 18.5903 3.80824 18.5903Z" fill="#AEB3C3"/>
<path d="M22.0144 18.5903C21.014 18.5903 20.0136 18.5903 19.0132 18.5903C18.7146 18.5903 18.5788 18.4883 18.5467 18.1979C18.5221 17.9741 18.5097 17.7454 18.564 17.5217C18.6159 17.3094 18.736 17.214 18.9523 17.214C21.0025 17.2132 23.0534 17.2132 25.1036 17.214C25.3183 17.214 25.4508 17.3111 25.4944 17.5184C25.547 17.7685 25.5478 18.0243 25.496 18.2753C25.4508 18.4941 25.3208 18.5895 25.0987 18.5895C24.0703 18.5903 23.0419 18.5903 22.0144 18.5903Z" fill="#AEB3C3"/>
</svg>
