<svg width="23" height="24" viewBox="0 0 23 24" fill="none" xmlns="http://www.w3.org/2000/svg">
<path d="M22.35 19.4551L22.095 19.2336C21.3716 18.5992 20.7384 17.8717 20.2125 17.0707C19.6382 15.9653 19.2939 14.7581 19.2 13.52V9.87332C19.205 7.92864 18.4883 6.0491 17.1846 4.58784C15.8808 3.12659 14.0799 2.18421 12.12 1.93775V0.985487C12.12 0.724119 12.0145 0.473457 11.8267 0.288642C11.639 0.103828 11.3843 0 11.1188 0C10.8532 0 10.5985 0.103828 10.4108 0.288642C10.223 0.473457 10.1175 0.724119 10.1175 0.985487V1.95252C8.17519 2.21674 6.39598 3.16482 5.1094 4.62116C3.82281 6.07751 3.11605 7.94342 3.12 9.87332V13.52C3.02607 14.7581 2.68183 15.9653 2.1075 17.0707C1.59066 17.8697 0.967646 18.5971 0.255 19.2336L0 19.4551V21.5368H22.35V19.4551Z" fill="#AEB3C3"/>
<path d="M9.20251 22.3119C9.26828 22.7798 9.50386 23.2085 9.86573 23.5188C10.2276 23.8291 10.6913 24 11.1713 24C11.6512 24 12.1149 23.8291 12.4768 23.5188C12.8387 23.2085 13.0742 22.7798 13.14 22.3119H9.20251Z" fill="#AEB3C3"/>
</svg>
