<svg width="10" height="10" viewBox="0 0 10 10" fill="none" xmlns="http://www.w3.org/2000/svg">
<path d="M8.14815 5C8.14815 5.62264 7.96351 6.23131 7.61759 6.74902C7.27167 7.26673 6.77999 7.67023 6.20474 7.90851C5.6295 8.14678 4.99651 8.20913 4.38583 8.08766C3.77515 7.96619 3.2142 7.66635 2.77392 7.22608C2.33365 6.7858 2.03381 6.22485 1.91234 5.61417C1.79087 5.00349 1.85321 4.3705 2.09149 3.79526C2.32977 3.22001 2.73327 2.72833 3.25098 2.38241C3.76869 2.03649 4.37736 1.85185 5 1.85185C5.83456 1.85308 6.6346 2.18515 7.22472 2.77528C7.81485 3.3654 8.14692 4.16543 8.14815 5ZM5 1.11111C5.09823 1.11111 5.19243 1.07209 5.26189 1.00263C5.33135 0.933174 5.37037 0.838969 5.37037 0.740741V0.37037C5.37037 0.272142 5.33135 0.177937 5.26189 0.108479C5.19243 0.039021 5.09823 0 5 0C4.90177 0 4.80757 0.039021 4.73811 0.108479C4.66865 0.177937 4.62963 0.272142 4.62963 0.37037V0.740741C4.62963 0.838969 4.66865 0.933174 4.73811 1.00263C4.80757 1.07209 4.90177 1.11111 5 1.11111ZM1.72685 2.25C1.79687 2.31816 1.89072 2.35629 1.98843 2.35629C2.08614 2.35629 2.17999 2.31816 2.25 2.25C2.31926 2.18057 2.35816 2.0865 2.35816 1.98843C2.35816 1.89035 2.31926 1.79628 2.25 1.72685L1.98611 1.46296C1.91566 1.39913 1.82335 1.36483 1.72831 1.36717C1.63327 1.36951 1.54276 1.40831 1.47553 1.47553C1.40831 1.54276 1.36951 1.63327 1.36717 1.72831C1.36483 1.82335 1.39913 1.91566 1.46296 1.98611L1.72685 2.25ZM0.740741 4.62963H0.37037C0.272142 4.62963 0.177937 4.66865 0.108479 4.73811C0.039021 4.80757 0 4.90177 0 5C0 5.09823 0.039021 5.19243 0.108479 5.26189C0.177937 5.33135 0.272142 5.37037 0.37037 5.37037H0.740741C0.838969 5.37037 0.933174 5.33135 1.00263 5.26189C1.07209 5.19243 1.11111 5.09823 1.11111 5C1.11111 4.90177 1.07209 4.80757 1.00263 4.73811C0.933174 4.66865 0.838969 4.62963 0.740741 4.62963ZM1.72685 7.75L1.46296 8.01389C1.3937 8.08332 1.3548 8.17739 1.3548 8.27546C1.3548 8.37354 1.3937 8.4676 1.46296 8.53704C1.53406 8.60499 1.6285 8.6431 1.72685 8.64352C1.82388 8.64336 1.91698 8.60512 1.98611 8.53704L2.25 8.27315C2.31384 8.20269 2.34814 8.11039 2.3458 8.01535C2.34346 7.9203 2.30466 7.8298 2.23743 7.76257C2.1702 7.69534 2.0797 7.65654 1.98465 7.6542C1.88961 7.65186 1.79731 7.68616 1.72685 7.75ZM5 8.88889C4.90177 8.88889 4.80757 8.92791 4.73811 8.99737C4.66865 9.06682 4.62963 9.16103 4.62963 9.25926V9.62963C4.62963 9.72786 4.66865 9.82206 4.73811 9.89152C4.80757 9.96098 4.90177 10 5 10C5.09823 10 5.19243 9.96098 5.26189 9.89152C5.33135 9.82206 5.37037 9.72786 5.37037 9.62963V9.25926C5.37037 9.16103 5.33135 9.06682 5.26189 8.99737C5.19243 8.92791 5.09823 8.88889 5 8.88889ZM8.27315 7.75C8.20269 7.68616 8.11039 7.65186 8.01535 7.6542C7.9203 7.65654 7.8298 7.69534 7.76257 7.76257C7.69534 7.8298 7.65654 7.9203 7.6542 8.01535C7.65186 8.11039 7.68616 8.20269 7.75 8.27315L8.01389 8.53704C8.08302 8.60512 8.17612 8.64336 8.27315 8.64352C8.3715 8.6431 8.46594 8.60499 8.53704 8.53704C8.6063 8.4676 8.6452 8.37354 8.6452 8.27546C8.6452 8.17739 8.6063 8.08332 8.53704 8.01389L8.27315 7.75ZM9.62963 4.62963H9.25926C9.16103 4.62963 9.06682 4.66865 8.99737 4.73811C8.92791 4.80757 8.88889 4.90177 8.88889 5C8.88889 5.09823 8.92791 5.19243 8.99737 5.26189C9.06682 5.33135 9.16103 5.37037 9.25926 5.37037H9.62963C9.72786 5.37037 9.82206 5.33135 9.89152 5.26189C9.96098 5.19243 10 5.09823 10 5C10 4.90177 9.96098 4.80757 9.89152 4.73811C9.82206 4.66865 9.72786 4.62963 9.62963 4.62963ZM8.01389 2.35648C8.06202 2.35691 8.10975 2.34771 8.15427 2.32942C8.19879 2.31113 8.23921 2.28413 8.27315 2.25L8.53704 1.98611C8.57422 1.95242 8.60417 1.91153 8.62506 1.86592C8.64596 1.82031 8.65737 1.77092 8.65861 1.72076C8.65984 1.67061 8.65088 1.62072 8.63225 1.57414C8.61362 1.52755 8.58572 1.48523 8.55024 1.44976C8.51476 1.41428 8.47245 1.38638 8.42586 1.36775C8.37928 1.34912 8.32939 1.34016 8.27923 1.34139C8.22908 1.34263 8.17969 1.35404 8.13408 1.37494C8.08847 1.39583 8.04758 1.42578 8.01389 1.46296L7.75 1.72685C7.68074 1.79628 7.64184 1.89035 7.64184 1.98843C7.64184 2.0865 7.68074 2.18057 7.75 2.25C7.78448 2.2847 7.82565 2.31203 7.87101 2.33033C7.91638 2.34863 7.96498 2.35753 8.01389 2.35648Z" fill="#FED766"/>
</svg>
