<svg width="76" height="58" viewBox="0 0 76 58" fill="none" xmlns="http://www.w3.org/2000/svg">
<path d="M68.7186 5.48032H55.0659V4C55.0659 1.79086 53.275 0 51.0659 0H24.9341C22.725 0 20.9341 1.79086 20.9341 4V5.48032H7.28144C5.35028 5.48032 3.49822 6.25017 2.13268 7.62051C0.767149 8.99086 0 10.8494 0 12.7874V50.6929C0 52.6309 0.767149 54.4895 2.13268 55.8598C3.49822 57.2301 5.35028 58 7.28144 58H68.7186C70.6497 58 72.5018 57.2301 73.8673 55.8598C75.2329 54.4895 76 52.6309 76 50.6929V12.7874C76 10.8494 75.2329 8.99086 73.8673 7.62051C72.5018 6.25017 70.6497 5.48032 68.7186 5.48032ZM37.9982 53.8898C25.8309 53.8898 15.9354 43.9521 15.9354 31.742C15.9354 19.5318 25.8309 9.59421 37.9982 9.59421C50.1655 9.59421 60.0682 19.5318 60.0682 31.742C60.0682 43.9521 50.1655 53.8825 37.9982 53.8825V53.8898ZM37.9982 16.8976C36.0554 16.8979 34.1317 17.2821 32.3369 18.0284C30.5421 18.7747 28.9113 19.8685 27.5377 21.2473C26.1641 22.626 25.0746 24.2628 24.3314 26.0641C23.5881 27.8654 23.2057 29.796 23.2059 31.7456C23.2062 33.6953 23.5891 35.6258 24.3328 37.4269C25.0765 39.228 26.1664 40.8645 27.5403 42.2429C28.9142 43.6214 30.5453 44.7147 32.3402 45.4606C34.1352 46.2065 36.059 46.5902 38.0018 46.59C41.9259 46.5895 45.6891 45.0247 48.4636 42.2398C51.238 39.4549 52.7964 35.6781 52.7959 31.7402C52.7954 27.8022 51.2361 24.0258 48.461 21.2416C45.6859 18.4574 41.9223 16.8935 37.9982 16.894V16.8976Z" fill="#3454D1"/>
</svg>
