<svg width="11" height="6" viewBox="0 0 11 6" fill="none" xmlns="http://www.w3.org/2000/svg">
<path d="M10.1941 0.229439C10.0472 0.0825295 9.8479 -2.51638e-08 9.64011 -3.42467e-08C9.43232 -4.33296e-08 9.23303 0.0825295 9.08608 0.229439L5.20706 4.10846L1.32804 0.229439C1.18024 0.0866926 0.982292 0.00770569 0.776824 0.00949114C0.571356 0.0112766 0.374809 0.0936914 0.229516 0.238985C0.0842228 0.384278 0.00180909 0.580825 2.28538e-05 0.786293C-0.00176243 0.991761 0.0772247 1.18971 0.219971 1.33751L4.65302 5.77056C4.79998 5.91747 4.99926 6 5.20706 6C5.41485 6 5.61414 5.91747 5.76109 5.77056L10.1941 1.33751C10.3411 1.19055 10.4236 0.991266 10.4236 0.783473C10.4236 0.57568 10.3411 0.376394 10.1941 0.229439Z" fill="#2E2E2E"/>
</svg>
