<svg width="24" height="24" viewBox="0 0 24 24" fill="none" xmlns="http://www.w3.org/2000/svg">
<path d="M8.4 0H2.4C1.07452 0 0 1.07452 0 2.4V10.8C0 12.1255 1.07452 13.2 2.4 13.2H8.4C9.72548 13.2 10.8 12.1255 10.8 10.8V2.4C10.8 1.07452 9.72548 0 8.4 0Z" fill="#3454D1"/>
<path d="M21.6 0H15.6C14.2745 0 13.2 1.07452 13.2 2.4V6C13.2 7.32548 14.2745 8.4 15.6 8.4H21.6C22.9255 8.4 24 7.32548 24 6V2.4C24 1.07452 22.9255 0 21.6 0Z" fill="#3454D1"/>
<path d="M8.4 15.6H2.4C1.07452 15.6 0 16.6745 0 18V21.6C0 22.9255 1.07452 24 2.4 24H8.4C9.72548 24 10.8 22.9255 10.8 21.6V18C10.8 16.6745 9.72548 15.6 8.4 15.6Z" fill="#3454D1"/>
<path d="M21.6 10.8H15.6C14.2745 10.8 13.2 11.8745 13.2 13.2V21.6C13.2 22.9255 14.2745 24 15.6 24H21.6C22.9255 24 24 22.9255 24 21.6V13.2C24 11.8745 22.9255 10.8 21.6 10.8Z" fill="#3454D1"/>
</svg>
