<svg width="76" height="63" viewBox="0 0 76 63" fill="none" xmlns="http://www.w3.org/2000/svg">
<path d="M46.8962 9.69231H66.2689C67.621 9.69217 68.9583 9.97273 70.1954 10.5161C71.4326 11.0595 72.5425 11.8537 73.4544 12.8482C74.3662 13.8427 75.06 15.0156 75.4914 16.292C75.9228 17.5685 76.0824 18.9205 75.9601 20.2618L72.861 54.1848C72.6413 56.593 71.5259 58.8323 69.7338 60.4633C67.9416 62.0943 65.6022 62.999 63.1747 63H12.8261C10.3986 62.999 8.05918 62.0943 6.26702 60.4633C4.47487 58.8323 3.35946 56.593 3.13977 54.1848L0.0407245 20.2618C-0.166594 18.0169 0.422116 15.7707 1.70458 13.9133L1.51484 9.69231C1.51484 7.12175 2.53998 4.65647 4.36473 2.83881C6.18948 1.02115 8.66438 0 11.245 0H29.1095C31.6899 0.000548947 34.1644 1.02206 35.9887 2.83985L40.017 6.85246C41.8413 8.67025 44.3158 9.69176 46.8962 9.69231ZM6.4091 10.2738C7.45022 9.89585 8.56919 9.69231 9.7368 9.69231H35.9887L32.5491 6.26608C31.6369 5.35718 30.3997 4.84643 29.1095 4.84615H11.245C9.97053 4.84592 8.74689 5.34384 7.83712 6.23285C6.92736 7.12186 6.40412 8.33097 6.37991 9.60023L6.4091 10.2738Z" fill="#3454D1"/>
</svg>
