<svg width="13" height="16" viewBox="0 0 13 16" fill="none" xmlns="http://www.w3.org/2000/svg">
<path d="M3.03603 6.95822H8.05114C8.16788 6.95822 8.28346 6.98121 8.39131 7.02589C8.49915 7.07056 8.59714 7.13603 8.67968 7.21857C8.76223 7.30111 8.8277 7.3991 8.87237 7.50695C8.91704 7.61479 8.94003 7.73038 8.94003 7.84711C8.94003 7.96384 8.91704 8.07943 8.87237 8.18727C8.8277 8.29512 8.76223 8.39311 8.67968 8.47565C8.59714 8.55819 8.49915 8.62367 8.39131 8.66834C8.28346 8.71301 8.16788 8.736 8.05114 8.736H3.03603L4.03337 9.73333C4.20004 9.90012 4.29363 10.1263 4.29355 10.3621C4.29346 10.5979 4.19971 10.824 4.03292 10.9907C3.86613 11.1573 3.63996 11.2509 3.40416 11.2508C3.16837 11.2508 2.94226 11.157 2.77559 10.9902L0.261812 8.47645C0.178847 8.39407 0.113001 8.29609 0.0680669 8.18816C0.0231332 8.08023 0 7.96447 0 7.84756C0 7.73064 0.0231332 7.61488 0.0680669 7.50695C0.113001 7.39902 0.178847 7.30104 0.261812 7.21867L2.7747 4.70489C2.94137 4.5381 3.16748 4.44435 3.40328 4.44426C3.63907 4.44418 3.86524 4.53777 4.03203 4.70444C4.19883 4.87112 4.29258 5.09722 4.29266 5.33302C4.29274 5.56882 4.19915 5.79499 4.03248 5.96178L3.03603 6.95822ZM11.5569 0C11.7927 0 12.0188 0.0936505 12.1855 0.26035C12.3522 0.427049 12.4458 0.653141 12.4458 0.888889V15.1111C12.4458 15.3469 12.3522 15.573 12.1855 15.7397C12.0188 15.9064 11.7927 16 11.5569 16C11.3212 16 11.0951 15.9064 10.9284 15.7397C10.7617 15.573 10.668 15.3469 10.668 15.1111V0.888889C10.668 0.653141 10.7617 0.427049 10.9284 0.26035C11.0951 0.0936505 11.3212 0 11.5569 0Z" fill="#3454D1"/>
</svg>
