<svg width="20" height="20" viewBox="0 0 20 20" fill="none" xmlns="http://www.w3.org/2000/svg">
    <path stroke="currentColor" stroke-linecap="round" stroke-linejoin="round" d="M2.5 2.5L17.5 17.5"/>
    <path stroke="currentColor" stroke-linecap="round" stroke-linejoin="round" d="M8.81973 8.82251C8.16849 9.47329 8.16812 10.5288 8.81889 11.18C9.46967 11.8312 10.5252 11.8316 11.1764 11.1808"/>
    <path fill="currentColor" d="M7.66485 3.99C7.39936 4.06595 7.2457 4.34274 7.32165 4.60824C7.3976 4.87373 7.67439 5.02739 7.93988 4.95144L7.66485 3.99ZM9.99987 4.16655L9.9981 4.66655H9.99987V4.16655ZM18.3332 9.99989L18.7673 10.248C18.8552 10.0943 18.8552 9.90555 18.7673 9.75181L18.3332 9.99989ZM15.8802 12.5672C15.6928 12.77 15.7052 13.0863 15.908 13.2737C16.1108 13.4612 16.4271 13.4487 16.6146 13.2459L15.8802 12.5672ZM14.7436 14.8719C14.9725 14.7175 15.0329 14.4068 14.8785 14.1778C14.7241 13.9489 14.4134 13.8884 14.1844 14.0429L14.7436 14.8719ZM1.6665 9.99989L1.23242 9.75176C1.14454 9.90549 1.14453 10.0942 1.23239 10.248L1.6665 9.99989ZM5.80718 5.96284C6.03571 5.80783 6.09531 5.49691 5.94029 5.26838C5.78528 5.03985 5.47436 4.98025 5.24583 5.13526L5.80718 5.96284ZM7.93988 4.95144C8.60911 4.76 9.30203 4.66408 9.9981 4.66655L10.0016 3.66656C9.21136 3.66376 8.42466 3.77265 7.66485 3.99L7.93988 4.95144ZM9.99987 4.66655C13.0932 4.66655 15.7308 6.45367 17.8991 10.248L18.7673 9.75181C16.4906 5.76777 13.5732 3.66655 9.99987 3.66655V4.66655ZM17.8991 9.75175C17.266 10.8594 16.5925 11.7965 15.8802 12.5672L16.6146 13.2459C17.3872 12.41 18.1038 11.4088 18.7673 10.248L17.8991 9.75175ZM14.1844 14.0429C12.9064 14.9048 11.5169 15.3332 9.99984 15.3332V16.3332C11.7195 16.3332 13.3032 15.8433 14.7436 14.8719L14.1844 14.0429ZM9.99984 15.3332C6.90651 15.3332 4.2689 13.5461 2.10062 9.75181L1.23239 10.248C3.5091 14.232 6.4265 16.3332 9.99984 16.3332V15.3332ZM2.10059 10.248C3.21543 8.29766 4.45493 6.88007 5.80718 5.96284L5.24583 5.13526C3.73308 6.16136 2.39925 7.71044 1.23242 9.75176L2.10059 10.248Z"/>
</svg>
